<svg xmlns="http://www.w3.org/2000/svg" width="512" height="512" viewBox="0 0 512 512"><path d="M97.344 482.17c-23.31 0-45.215-9.084-61.69-25.555-34.01-34.014-34.01-89.36 0-123.37l269.69-269.702c21.726-21.75 50.644-33.713 81.39-33.713 30.75 0 59.666 11.963 81.394 33.713 21.748 21.744 33.726 50.645 33.726 81.39 0 30.75-11.964 59.65-33.708 81.38L255.843 438.596c-6.374 6.37-16.696 6.37-23.067 0-6.374-6.373-6.374-16.695 0-23.07l212.298-212.283c15.583-15.58 24.153-36.29 24.153-58.31 0-22.017-8.588-42.74-24.167-58.323-15.583-15.58-36.294-24.154-58.327-24.154-22.03 0-42.74 8.574-58.323 24.154L58.725 356.31c-21.283 21.302-21.283 55.94 0 77.235 20.645 20.617 56.59 20.617 77.233 0l181.09-181.105c4.925-4.924 7.746-11.74 7.746-18.688 0-7.045-2.755-13.686-7.76-18.69-10.29-10.29-27.066-10.32-37.357 0L156 338.755c-6.37 6.375-16.697 6.375-23.067 0-6.374-6.37-6.374-16.697 0-23.066l123.673-123.69c23.005-23.005 60.46-23.005 83.497 0 11.17 11.165 17.317 26 17.317 41.755 0 15.547-6.308 30.762-17.3 41.754L159.03 456.615c-16.475 16.47-38.38 25.555-61.686 25.555z"/></svg>